<?xml version="1.0" standalone="no"?>
<svg xmlns:xlink="http://www.w3.org/1999/xlink" id="wave" style="transform:rotate(0deg); transition: 0.3s" viewBox="0 0 1440 490" version="1.1" xmlns="http://www.w3.org/2000/svg"><defs><linearGradient id="sw-gradient-0" x1="0" x2="0" y1="1" y2="0"><stop stop-color="rgba(138.714, 195.383, 237.241, 1)" offset="0%"/><stop stop-color="rgba(11, 66, 108, 1)" offset="100%"/></linearGradient></defs><path style="transform:translate(0, 0px); opacity:1" fill="url(#sw-gradient-0)" d="M0,294L60,310.3C120,327,240,359,360,367.5C480,376,600,359,720,326.7C840,294,960,245,1080,228.7C1200,212,1320,229,1440,212.3C1560,196,1680,147,1800,171.5C1920,196,2040,294,2160,285.8C2280,278,2400,163,2520,147C2640,131,2760,212,2880,269.5C3000,327,3120,359,3240,383.8C3360,408,3480,425,3600,408.3C3720,392,3840,343,3960,318.5C4080,294,4200,294,4320,245C4440,196,4560,98,4680,89.8C4800,82,4920,163,5040,187.8C5160,212,5280,180,5400,196C5520,212,5640,278,5760,326.7C5880,376,6000,408,6120,351.2C6240,294,6360,147,6480,138.8C6600,131,6720,261,6840,261.3C6960,261,7080,131,7200,89.8C7320,49,7440,98,7560,171.5C7680,245,7800,343,7920,359.3C8040,376,8160,310,8280,277.7C8400,245,8520,245,8580,245L8640,245L8640,490L8580,490C8520,490,8400,490,8280,490C8160,490,8040,490,7920,490C7800,490,7680,490,7560,490C7440,490,7320,490,7200,490C7080,490,6960,490,6840,490C6720,490,6600,490,6480,490C6360,490,6240,490,6120,490C6000,490,5880,490,5760,490C5640,490,5520,490,5400,490C5280,490,5160,490,5040,490C4920,490,4800,490,4680,490C4560,490,4440,490,4320,490C4200,490,4080,490,3960,490C3840,490,3720,490,3600,490C3480,490,3360,490,3240,490C3120,490,3000,490,2880,490C2760,490,2640,490,2520,490C2400,490,2280,490,2160,490C2040,490,1920,490,1800,490C1680,490,1560,490,1440,490C1320,490,1200,490,1080,490C960,490,840,490,720,490C600,490,480,490,360,490C240,490,120,490,60,490L0,490Z"/><defs><linearGradient id="sw-gradient-1" x1="0" x2="0" y1="1" y2="0"><stop stop-color="rgba(121.505, 194.62, 248.625, 1)" offset="0%"/><stop stop-color="rgba(11, 66, 108, 1)" offset="100%"/></linearGradient></defs><path style="transform:translate(0, 50px); opacity:0.9" fill="url(#sw-gradient-1)" d="M0,294L60,285.8C120,278,240,261,360,269.5C480,278,600,310,720,318.5C840,327,960,310,1080,253.2C1200,196,1320,98,1440,73.5C1560,49,1680,98,1800,106.2C1920,114,2040,82,2160,122.5C2280,163,2400,278,2520,318.5C2640,359,2760,327,2880,277.7C3000,229,3120,163,3240,163.3C3360,163,3480,229,3600,269.5C3720,310,3840,327,3960,294C4080,261,4200,180,4320,187.8C4440,196,4560,294,4680,285.8C4800,278,4920,163,5040,147C5160,131,5280,212,5400,220.5C5520,229,5640,163,5760,147C5880,131,6000,163,6120,147C6240,131,6360,65,6480,57.2C6600,49,6720,98,6840,106.2C6960,114,7080,82,7200,57.2C7320,33,7440,16,7560,57.2C7680,98,7800,196,7920,204.2C8040,212,8160,131,8280,138.8C8400,147,8520,245,8580,294L8640,343L8640,490L8580,490C8520,490,8400,490,8280,490C8160,490,8040,490,7920,490C7800,490,7680,490,7560,490C7440,490,7320,490,7200,490C7080,490,6960,490,6840,490C6720,490,6600,490,6480,490C6360,490,6240,490,6120,490C6000,490,5880,490,5760,490C5640,490,5520,490,5400,490C5280,490,5160,490,5040,490C4920,490,4800,490,4680,490C4560,490,4440,490,4320,490C4200,490,4080,490,3960,490C3840,490,3720,490,3600,490C3480,490,3360,490,3240,490C3120,490,3000,490,2880,490C2760,490,2640,490,2520,490C2400,490,2280,490,2160,490C2040,490,1920,490,1800,490C1680,490,1560,490,1440,490C1320,490,1200,490,1080,490C960,490,840,490,720,490C600,490,480,490,360,490C240,490,120,490,60,490L0,490Z"/><defs><linearGradient id="sw-gradient-2" x1="0" x2="0" y1="1" y2="0"><stop stop-color="rgba(53, 141, 206, 1)" offset="0%"/><stop stop-color="rgba(11, 66, 108, 1)" offset="100%"/></linearGradient></defs><path style="transform:translate(0, 100px);
opacity:0.8" fill="url(#sw-gradient-2)" d="M0,441L60,424.7C120,408,240,376,360,334.8C480,294,600,245,720,236.8C840,229,960,261,1080,236.8C1200,212,1320,131,1440,122.5C1560,114,1680,180,1800,220.5C1920,261,2040,278,2160,285.8C2280,294,2400,294,2520,285.8C2640,278,2760,261,2880,236.8C3000,212,3120,180,3240,179.7C3360,180,3480,212,3600,204.2C3720,196,3840,147,3960,130.7C4080,114,4200,131,4320,187.8C4440,245,4560,343,4680,334.8C4800,327,4920,212,5040,163.3C5160,114,5280,131,5400,147C5520,163,5640,180,5760,220.5C5880,261,6000,327,6120,302.2C6240,278,6360,163,6480,171.5C6600,180,6720,310,6840,318.5C6960,327,7080,212,7200,163.3C7320,114,7440,131,7560,130.7C7680,131,7800,114,7920,114.3C8040,114,8160,131,8280,122.5C8400,114,8520,82,8580,65.3L8640,49L8640,490L8580,490C8520,490,8400,490,8280,490C8160,490,8040,490,7920,490C7800,490,7680,490,7560,490C7440,490,7320,490,7200,490C7080,490,6960,490,6840,490C6720,490,6600,490,6480,490C6360,490,6240,490,6120,490C6000,490,5880,490,5760,490C5640,490,5520,490,5400,490C5280,490,5160,490,5040,490C4920,490,4800,490,4680,490C4560,490,4440,490,4320,490C4200,490,4080,490,3960,490C3840,490,3720,490,3600,490C3480,490,3360,490,3240,490C3120,490,3000,490,2880,490C2760,490,2640,490,2520,490C2400,490,2280,490,2160,490C2040,490,1920,490,1800,490C1680,490,1560,490,1440,490C1320,490,1200,490,1080,490C960,490,840,490,720,490C600,490,480,490,360,490C240,490,120,490,60,490L0,490Z"/></svg>